<svg xmlns="http://www.w3.org/2000/svg" viewBox="0 0 40.25 40.25"><defs><style>.cls-1{fill:#bfdbff;}.cls-2,.cls-3,.cls-5,.cls-6{fill:none;}.cls-2,.cls-3,.cls-4,.cls-5,.cls-6{stroke:#000;}.cls-2,.cls-3{stroke-miterlimit:10;}.cls-3,.cls-4{stroke-width:0.75px;}.cls-4,.cls-5,.cls-6{stroke-linecap:round;stroke-linejoin:round;}.cls-6{stroke-dasharray:1.01 2.02;}</style></defs><g id="Слой_2" data-name="Слой 2"><g id="Слой_1-2" data-name="Слой 1"><rect class="cls-1" width="40.25" height="40.25" rx="6.22"/><rect class="cls-2" x="26.41" y="20.54" width="10.06" height="14.26" rx="2.3"/><line class="cls-2" x1="23.9" y1="13" x2="31.99" y2="20.54"/><path class="cls-2" d="M13.15,36.06H6.55A1.52,1.52,0,0,1,5,34.54V24.16a1.52,1.52,0,0,1,1.52-1.52h6.6a1.52,1.52,0,0,1,1.52,1.52V34.54A1.52,1.52,0,0,1,13.15,36.06Z"/><line class="cls-3" x1="4.61" y1="26.41" x2="14.67" y2="26.41"/><line class="cls-3" x1="4.61" y1="29.35" x2="14.67" y2="29.35"/><line class="cls-3" x1="4.61" y1="32.7" x2="14.67" y2="32.7"/><path class="cls-4" d="M7.13,24.74h0Z"/><rect class="cls-2" x="14.26" y="3.35" width="9.64" height="13.42" rx="1.52"/><line class="cls-3" x1="14.25" y1="6.71" x2="23.9" y2="6.71"/><path class="cls-4" d="M17,5.2h0Z"/><line class="cls-5" x1="14.26" y1="11.74" x2="14.03" y2="12.18"/><line class="cls-6" x1="13.11" y1="13.98" x2="9.44" y2="21.16"/><line class="cls-5" x1="8.98" y1="22.05" x2="8.75" y2="22.5"/></g></g></svg>